<svg xmlns="http://www.w3.org/2000/svg" viewBox="0 0 500 500">
  <rect width="500" height="500" rx="100" fill="#08080A"/>
  <polygon fill="#6d42f9" points="416.84 492.01 416.86 360.65 496.04 308.31 496.33 491.76 416.84 492.01"/>
  <path fill="#fafafa" d="M.07,491.78l.11-329.41,235.78,164.2,145.43-98.15c38.52-26,51.01-75.62,21.5-112.54-14.23-17.8-34.36-26.45-57.57-26.44l-202.77.07-.42-81.52,211.47.67c62.8.2,116.74,44.88,136.77,100.6,21.69,60.34,6.86,133.33-46.33,170.17l-207.8,143.93-155.92-109.74-.6,177.95-79.66.21Z"/>
  <rect fill="#a8f740" x=".02" y="8.06" width="79.87" height="81.61"/>
</svg>
